HIERARCHY
ROOT Hips
{
	OFFSET 0.000000 0.000000 0.000000
	CHANNELS 6 Xposition Yposition Zposition Xrotation Yrotation Zrotation
	JOINT LeftUpLeg_virtual
	{
		OFFSET 0.000000 0.000000 0.000000
		CHANNELS 3 Xrotation Yrotation Zrotation
		JOINT LeftUpLeg
		{
			OFFSET 15.427100 -6.655098 0.678600
			CHANNELS 3 Xrotation Yrotation Zrotation
			JOINT LeftLeg
			{
				OFFSET 4.081073 -39.591068 13.024000
				CHANNELS 3 Xrotation Yrotation Zrotation
				JOINT LeftFoot
				{
					OFFSET -4.081074 -37.707932 -15.979700
					CHANNELS 3 Xrotation Yrotation Zrotation
					JOINT LeftToeBase
					{
						OFFSET 5.346399 -15.068900 20.645000
						CHANNELS 3 Xrotation Yrotation Zrotation
						JOINT LeftToe_End
						{
							OFFSET 2.754700 0.931300 11.300900
							CHANNELS 3 Xrotation Yrotation Zrotation
							End Site
							{
								OFFSET 0 0 0
							}
						}
					}
				}
			}
		}
	}
	JOINT RightUpLeg_virtual
	{
		OFFSET 0.000000 0.000000 0.000000
		CHANNELS 3 Xrotation Yrotation Zrotation
		JOINT RightUpLeg
		{
			OFFSET -15.569500 -6.655098 0.678600
			CHANNELS 3 Xrotation Yrotation Zrotation
			JOINT RightLeg
			{
				OFFSET -4.081825 -39.591045 13.023800
				CHANNELS 3 Xrotation Yrotation Zrotation
				JOINT RightFoot
				{
					OFFSET 4.081824 -37.707954 -15.979600
					CHANNELS 3 Xrotation Yrotation Zrotation
					JOINT RightToeBase
					{
						OFFSET -5.346400 -15.068900 20.645000
						CHANNELS 3 Xrotation Yrotation Zrotation
						JOINT RightToe_End
						{
							OFFSET -2.754700 0.931300 11.300900
							CHANNELS 3 Xrotation Yrotation Zrotation
							End Site
							{
								OFFSET 0 0 0
							}
						}
					}
				}
			}
		}
	}
	JOINT Spine_virtual
	{
		OFFSET 0.000000 0.000000 0.000000
		CHANNELS 3 Xrotation Yrotation Zrotation
		JOINT Spine
		{
			OFFSET -0.279200 12.230698 -2.892100
			CHANNELS 3 Xrotation Yrotation Zrotation
			JOINT Spine1
			{
				OFFSET -0.232667 10.192268 -1.242267
				CHANNELS 3 Xrotation Yrotation Zrotation
				JOINT Spine1_split
				{
					OFFSET -0.232667 10.192268 -1.242267
					CHANNELS 3 Xrotation Yrotation Zrotation
					JOINT Spine2
					{
						OFFSET -0.232667 10.192268 -1.242267
						CHANNELS 3 Xrotation Yrotation Zrotation
						JOINT Neck_virtual
						{
							OFFSET 0.000000 0.000000 0.000000
							CHANNELS 3 Xrotation Yrotation Zrotation
							JOINT Neck
							{
								OFFSET -0.418800 17.814194 8.416900
								CHANNELS 3 Xrotation Yrotation Zrotation
								JOINT Head
								{
									OFFSET 0.000000 7.031097 3.806800
									CHANNELS 3 Xrotation Yrotation Zrotation
									JOINT HeadTop_End
									{
										OFFSET 0.000000 24.646606 12.978600
										CHANNELS 3 Xrotation Yrotation Zrotation
										End Site
										{
											OFFSET 0 0 0
										}
									}
								}
							}
						}
						JOINT LeftShoulder_virtual
						{
							OFFSET 0.000000 0.000000 0.000000
							CHANNELS 3 Xrotation Yrotation Zrotation
							JOINT LeftShoulder
							{
								OFFSET 8.476499 7.247704 -3.868750
								CHANNELS 3 Xrotation Yrotation Zrotation
								JOINT LeftShoulder_split
								{
									OFFSET 8.476499 7.247704 -3.868750
									CHANNELS 3 Xrotation Yrotation Zrotation
									JOINT LeftArm
									{
										OFFSET 9.308998 -2.777710 0.208600
										CHANNELS 3 Xrotation Yrotation Zrotation
										JOINT LeftForeArm
										{
											OFFSET 29.972298 0.000000 0.000000
											CHANNELS 3 Xrotation Yrotation Zrotation
											JOINT LeftHand
											{
												OFFSET 26.026505 0.000000 0.000000
												CHANNELS 3 Xrotation Yrotation Zrotation
												End Site
												{
													OFFSET 0 0 0
												}
											}
										}
									}
								}
							}
						}
						JOINT RightShoulder_virtual
						{
							OFFSET 0.000000 0.000000 0.000000
							CHANNELS 3 Xrotation Yrotation Zrotation
							JOINT RightShoulder
							{
								OFFSET -7.570500 7.247704 -3.868750
								CHANNELS 3 Xrotation Yrotation Zrotation
								JOINT RightShoulder_split
								{
									OFFSET -7.570500 7.247704 -3.868750
									CHANNELS 3 Xrotation Yrotation Zrotation
									JOINT RightArm
									{
										OFFSET -9.308998 -2.777710 0.208500
										CHANNELS 3 Xrotation Yrotation Zrotation
										JOINT RightForeArm
										{
											OFFSET -29.972300 0.000000 0.000000
											CHANNELS 3 Xrotation Yrotation Zrotation
											JOINT RightHand
											{
												OFFSET -26.026505 0.000000 0.000000
												CHANNELS 3 Xrotation Yrotation Zrotation
												End Site
												{
													OFFSET 0 0 0
												}
											}
										}
									}
								}
							}
						}
					}
				}
			}
		}
	}
}
MOTION
Frames: 10
Frame Time: 0.03333333
0.554534 74.003357 0.309433 0.000000 0.000000 0.000000 10.432550 5.009987 -1.275325 -44.751468 4.404055 2.412029 66.616727 8.872487 1.056701 -30.420430 8.097427 -5.758139 -5.607181 -0.720951 -0.230208 0.000000 0.000000 0.000000 10.960276 4.453489 -1.133380 -36.338888 -12.931952 -3.569443 66.737929 -6.180333 -4.858805 -35.578087 -12.239823 5.538690 2.224882 1.335080 0.313405 0.000000 0.000000 0.000000 10.482337 2.407510 -0.750908 9.381027 1.513587 1.912349 8.772969 1.918225 -0.485458 0.828009 -0.581153 0.368872 0.000000 0.000000 0.000000 8.860058 0.831859 0.128945 -10.266675 -1.316490 6.179191 -25.803261 1.865833 -7.247364 0.000000 0.000000 0.000000 9.088431 0.494801 -0.006662 3.305958 -24.535558 3.973134 -2.632662 0.748082 -3.265779 -62.262761 -25.057727 -65.153359 177.456647 -72.647723 175.606295 0.000000 0.000000 0.000000 8.242371 0.631420 0.258246 0.019071 12.058702 10.743744 1.010095 6.463592 0.108056 -63.269736 31.502444 50.790458 -179.134033 70.618337 178.263716 0.000000 0.000000 0.000000 
0.550327 73.999123 0.306900 0.000000 0.000000 0.000000 10.409851 4.991567 -1.264438 -44.739634 4.416260 2.421049 66.631043 8.868691 1.060487 -30.424234 8.101071 -5.757021 -5.614105 -0.723082 -0.234071 0.000000 0.000000 0.000000 10.936223 4.431474 -1.122972 -36.338901 -12.927924 -3.570104 66.749137 -6.172565 -4.862608 -35.588742 -12.242517 5.520975 2.227293 1.334338 0.314577 0.000000 0.000000 0.000000 10.467436 2.389138 -0.745612 9.382691 1.497874 1.923333 8.792094 1.901730 -0.479451 0.825300 -0.580983 0.368242 0.000000 0.000000 0.000000 8.879445 0.813080 0.134692 -10.269348 -1.296780 6.162329 -25.819037 1.934015 -7.267396 0.000000 0.000000 0.000000 9.111302 0.477853 -0.001190 3.305440 -24.545301 3.970771 -2.635038 0.766389 -3.244685 -62.284618 -25.002816 -65.170933 177.451593 -72.692433 175.617018 0.000000 0.000000 0.000000 8.265810 0.614167 0.262855 0.013105 12.103259 10.714669 0.995714 6.449188 0.098906 -63.296599 31.466825 50.772338 -179.154619 70.679528 178.291884 0.000000 0.000000 0.000000 
0.546996 73.992279 0.304062 0.000000 0.000000 0.000000 10.383476 4.977628 -1.257015 -44.727753 4.422912 2.428976 66.650168 8.863873 1.066797 -30.428653 8.109534 -5.756071 -5.625436 -0.724638 -0.239926 0.000000 0.000000 0.000000 10.910461 4.409406 -1.114808 -36.339373 -12.926623 -3.568641 66.766212 -6.166338 -4.865513 -35.597549 -12.242997 5.502698 2.228176 1.333646 0.315786 0.000000 0.000000 0.000000 10.448257 2.367308 -0.740499 9.386084 1.485542 1.933389 8.807855 1.889492 -0.473798 0.816477 -0.573154 0.365652 0.000000 0.000000 0.000000 8.891429 0.798245 0.140142 -10.266853 -1.277523 6.147637 -25.822032 1.992523 -7.281772 0.000000 0.000000 0.000000 9.131404 0.463642 0.004570 3.304561 -24.550362 3.964078 -2.651066 0.773002 -3.233194 -62.322860 -24.941120 -65.171814 177.448642 -72.744055 175.627769 0.000000 0.000000 0.000000 8.284445 0.600113 0.268113 0.007491 12.144311 10.687214 0.984862 6.440090 0.096134 -63.348379 31.409445 50.779386 -179.156449 70.741068 178.296774 0.000000 0.000000 0.000000 
0.544197 73.983116 0.301979 0.000000 0.000000 0.000000 10.355067 4.966680 -1.250705 -44.712341 4.425844 2.429459 66.668418 8.860839 1.074005 -30.436119 8.124503 -5.756013 -5.636604 -0.725564 -0.246536 0.000000 0.000000 0.000000 10.883009 4.386753 -1.106378 -36.339359 -12.926441 -3.567556 66.789811 -6.160079 -4.869325 -35.603085 -12.240680 5.490603 2.225611 1.333271 0.316383 0.000000 0.000000 0.000000 10.424054 2.341316 -0.731958 9.389223 1.476491 1.940978 8.818574 1.881411 -0.468624 0.804353 -0.563634 0.364692 0.000000 0.000000 0.000000 8.898230 0.788602 0.144956 -10.253898 -1.262122 6.133170 -25.819403 2.025440 -7.287726 0.000000 0.000000 0.000000 9.147082 0.453507 0.010683 3.303015 -24.546865 3.959815 -2.668661 0.762294 -3.236494 -62.363274 -24.891361 -65.148503 177.452782 -72.738523 175.639844 0.000000 0.000000 0.000000 8.297082 0.590557 0.273680 0.002612 12.174476 10.657242 0.983433 6.443333 0.105258 -63.407774 31.342457 50.820603 -179.149442 70.748766 178.289849 0.000000 0.000000 0.000000 
0.540999 73.972992 0.302540 0.000000 0.000000 0.000000 10.327022 4.956674 -1.243052 -44.691273 4.428875 2.420963 66.682167 8.861362 1.080617 -30.444632 8.144575 -5.758740 -5.645176 -0.726196 -0.250181 0.000000 0.000000 0.000000 10.855045 4.365781 -1.095968 -36.337955 -12.925977 -3.568990 66.817364 -6.152599 -4.876131 -35.606958 -12.235890 5.488972 2.220490 1.333494 0.316178 0.000000 0.000000 0.000000 10.395841 2.314457 -0.719858 9.390798 1.469689 1.944367 8.824336 1.877009 -0.464464 0.797997 -0.552654 0.363687 0.000000 0.000000 0.000000 8.901190 0.784388 0.149242 -10.232548 -1.253382 6.118477 -25.818901 2.027281 -7.284845 0.000000 0.000000 0.000000 9.157436 0.448158 0.017007 3.301811 -24.537251 3.962474 -2.679559 0.744066 -3.249305 -62.386866 -24.864960 -65.100008 177.458710 -72.656390 175.645363 0.000000 0.000000 0.000000 8.303727 0.585326 0.278942 -0.000820 12.191955 10.625582 0.987033 6.450421 0.121916 -63.463222 31.284315 50.888167 -179.137694 70.692444 178.277623 0.000000 0.000000 0.000000 
0.537349 73.963234 0.304592 0.000000 0.000000 0.000000 10.301930 4.943609 -1.232731 -44.665431 4.434531 2.405404 66.691531 8.865854 1.085232 -30.451179 8.167358 -5.763452 -5.647997 -0.726793 -0.250177 0.000000 0.000000 0.000000 10.828729 4.347328 -1.083308 -36.334465 -12.924242 -3.573219 66.844466 -6.144903 -4.886635 -35.612992 -12.230022 5.495434 2.216238 1.334362 0.315362 0.000000 0.000000 0.000000 10.367807 2.292016 -0.705595 9.391771 1.464234 1.943919 8.826250 1.875255 -0.461558 0.797908 -0.542454 0.361659 0.000000 0.000000 0.000000 8.902851 0.784987 0.152755 -10.208614 -1.252368 6.106311 -25.829124 2.000306 -7.277573 0.000000 0.000000 0.000000 9.162782 0.447137 0.022033 3.300849 -24.527848 3.971460 -2.675768 0.732720 -3.264834 -62.384503 -24.858137 -65.034015 177.466387 -72.524410 175.643765 0.000000 0.000000 0.000000 8.306033 0.584875 0.283097 -0.003508 12.198110 10.593730 1.004134 6.463011 0.136033 -63.510500 31.249034 50.963894 -179.128432 70.607975 178.267951 0.000000 0.000000 0.000000 
0.532893 73.955879 0.307579 0.000000 0.000000 0.000000 10.281472 4.928298 -1.220034 -44.639903 4.442804 2.387181 66.698758 8.873377 1.088489 -30.453928 8.189419 -5.769100 -5.644211 -0.726755 -0.249256 0.000000 0.000000 0.000000 10.805804 4.334130 -1.069600 -36.328373 -12.922505 -3.579272 66.869533 -6.139291 -4.899882 -35.624228 -12.225277 5.502549 2.215578 1.335752 0.314960 0.000000 0.000000 0.000000 10.344036 2.276770 -0.691658 9.393276 1.459772 1.940915 8.825264 1.875577 -0.460017 0.806394 -0.536367 0.361097 0.000000 0.000000 0.000000 8.904550 0.788404 0.154958 -10.191137 -1.258859 6.099064 -25.851755 1.956740 -7.270266 0.000000 0.000000 0.000000 9.165105 0.449039 0.024583 3.300506 -24.521296 3.985304 -2.654604 0.733682 -3.274845 -62.369572 -24.861439 -64.968070 177.468559 -72.391399 175.632536 0.000000 0.000000 0.000000 8.306907 0.588320 0.285041 -0.005531 12.197722 10.567311 1.026816 6.472287 0.135571 -63.555955 31.248081 51.028077 -179.120591 70.548061 178.258689 0.000000 0.000000 0.000000 
0.527698 73.950806 0.308880 0.000000 0.000000 0.000000 10.265841 4.914324 -1.207169 -44.620260 4.450602 2.371069 66.705055 8.881053 1.093883 -30.452207 8.206086 -5.776996 -5.638263 -0.726072 -0.248172 0.000000 0.000000 0.000000 10.788887 4.328846 -1.057254 -36.322727 -12.920904 -3.586292 66.892250 -6.137815 -4.913516 -35.640767 -12.223789 5.505610 2.219093 1.337254 0.315268 0.000000 0.000000 0.000000 10.327022 2.271964 -0.681092 9.397614 1.456364 1.936548 8.822764 1.877583 -0.459831 0.819244 -0.534921 0.361997 0.000000 0.000000 0.000000 8.906607 0.792793 0.156126 -10.187807 -1.269760 6.100646 -25.882418 1.912281 -7.267894 0.000000 0.000000 0.000000 9.164814 0.452414 0.024406 3.300343 -24.521318 3.996415 -2.625576 0.748337 -3.274435 -62.361683 -24.857546 -64.920634 177.460923 -72.312210 175.610884 0.000000 0.000000 0.000000 8.307166 0.593238 0.284864 -0.006747 12.195552 10.555209 1.049036 6.473579 0.122100 -63.607544 31.288130 51.067999 -179.104267 70.561004 178.238895 0.000000 0.000000 0.000000 
0.522077 73.947800 0.306610 0.000000 0.000000 0.000000 10.255390 4.905488 -1.196502 -44.611418 4.453302 2.360096 66.710055 8.885665 1.103231 -30.447228 8.213799 -5.787947 -5.632833 -0.724408 -0.250263 0.000000 0.000000 0.000000 10.779037 4.334024 -1.048501 -36.319876 -12.920163 -3.593340 66.913369 -6.140961 -4.924949 -35.659929 -12.226401 5.503552 2.225297 1.338256 0.316430 0.000000 0.000000 0.000000 10.317753 2.276999 -0.674591 9.405649 1.454313 1.932188 8.819362 1.880090 -0.460360 0.831778 -0.538297 0.362928 0.000000 0.000000 0.000000 8.910099 0.796401 0.155799 -10.201420 -1.281503 6.111201 -25.912655 1.879852 -7.273997 0.000000 0.000000 0.000000 9.162706 0.455583 0.022203 3.298731 -24.525246 3.999197 -2.601233 0.764920 -3.267683 -62.378431 -24.834969 -64.900307 177.449858 -72.309512 175.589984 0.000000 0.000000 0.000000 8.307907 0.597688 0.283295 -0.007749 12.193075 10.563237 1.070429 6.471957 0.099824 -63.663599 31.363778 51.086830 -179.080634 70.662098 178.208720 0.000000 0.000000 0.000000 
0.515988 73.945953 0.300846 0.000000 0.000000 0.000000 10.250154 4.908747 -1.190282 -44.617483 4.448713 2.355921 66.711851 8.885070 1.116690 -30.439913 8.209583 -5.802594 -5.628862 -0.721739 -0.256606 0.000000 0.000000 0.000000 10.776518 4.350228 -1.044689 -36.321488 -12.921071 -3.599520 66.933327 -6.147756 -4.932526 -35.678036 -12.232291 5.498030 2.231991 1.338480 0.317990 0.000000 0.000000 0.000000 10.315878 2.290544 -0.672183 9.416958 1.453460 1.928319 8.815963 1.881967 -0.460729 0.838906 -0.546291 0.366887 0.000000 0.000000 0.000000 8.913814 0.797852 0.154945 -10.231278 -1.289819 6.126140 -25.931699 1.870384 -7.288728 0.000000 0.000000 0.000000 9.160668 0.456870 0.019856 3.296947 -24.530273 3.994401 -2.589916 0.779976 -3.260048 -62.429076 -24.789538 -64.904945 177.433876 -72.386850 175.571160 0.000000 0.000000 0.000000 8.309326 0.599542 0.281780 -0.008908 12.192765 10.593557 1.076007 6.463720 0.081541 -63.717790 31.457608 51.092906 -179.045759 70.830653 178.165020 0.000000 0.000000 0.000000 
